# xmcd CD database file
#
# Track frame offsets:
#	150
#	17315
#	34342
#	51439
#
# Disc length: 939 seconds
#
# Revision: 4
# Processed by: cddbd v1.5.2PL0 Copyright (c) Steve Scherf et al.
# Submitted via: CDex 1.70beta2
#
DISCID=2a03a904
DTITLE=Ayman feat. Keith Sweat - Dieser Brief
DYEAR=1900
DGENRE=
TTITLE0=Dieser Brief  (Deutsch/Englische Version)
TTITLE1=Dieser Brief (Englische Version)
TTITLE2=Dieser Brief (Deutsche Version)
TTITLE3=Dieser Brief (Remix)
EXTD=
EXTT0=
EXTT1=
EXTT2=
EXTT3=
PLAYORDER=
